# xmcd
#
# Track frame offsets:
#	150
#	25158
#	39170
#	56919
#	78979
#	102129
#	129822
#	150527
#	170161
#	193853
#	216461
#	241626
#	263717
#	287396
#	309780
#	326765
#	339011
#
# Disc length: 4798 seconds
#
# Revision: 0
# Processed by: cddbd v1.5.2PL0 Copyright (c) Steve Scherf et al.
# Submitted via: EasyCDDAExtractor 12.1.0.1
#
DISCID=da12bc11
DTITLE=isabel Pantoja - Grandes exitos
DYEAR=1900
DGENRE=Ballad
TTITLE0=asi fue
TTITLE1=marinero de luces
TTITLE2=era mi vida el
TTITLE3=hoy quiero confesarte
TTITLE4=se me enamora el alma
TTITLE5=hazme tuya una vez mas
TTITLE6=virgen del rocio
TTITLE7=que se busquen a otra
TTITLE8=queriendo y no
TTITLE9=desde que vivo con otro
TTITLE10=buenos dias tristeza
TTITLE11=hoy todos mis dias
TTITLE12=porque que me gusta morir
TTITLE13=que voy hacer contigo
TTITLE14=mi pequeño del alma
TTITLE15=nada
TTITLE16=ojos verdes
EXTD=
EXTT0=
EXTT1=
EXTT2=
EXTT3=
EXTT4=
EXTT5=
EXTT6=
EXTT7=
EXTT8=
EXTT9=
EXTT10=
EXTT11=
EXTT12=
EXTT13=
EXTT14=
EXTT15=
EXTT16=
PLAYORDER=
